# xmcd
#
# Track frame offsets:
#	150
#	22755
#	44162
#	62367
#	101457
#	113145
#	132770
#	158845
#	181612
#
# Disc length: 2696 seconds
#
# Revision: 1
# Processed by: cddbd v1.4PL0 Copyright (c) Steve Scherf et al.
# Submitted via: audiograbber 1.80.04
#
DISCID=650a8609
DTITLE=Nino Ferrer - Nino and radiah et le sud
DYEAR=1974
DGENRE=
TTITLE0=South
TTITLE1=Moses
TTITLE2=Mint Julep
TTITLE3=Hot toddy
TTITLE4=Vomitation
TTITLE5=The garden
TTITLE6=Looking for you
TTITLE7=New york
TTITLE8=Le sud
EXTD=
EXTT0=
EXTT1=
EXTT2=
EXTT3=
EXTT4=
EXTT5=
EXTT6=
EXTT7=
EXTT8=
PLAYORDER=
